<svg xmlns="http://www.w3.org/2000/svg" width="35" height="35" viewBox="0 0 35 35" fill="none">
  <mask id="mask0_3221_1887" style="mask-type:alpha" maskUnits="userSpaceOnUse" x="0" y="0" width="35" height="35">
    <rect x="0.394531" y="0.664062" width="34.0299" height="34.0299" fill="#D9D9D9"/>
  </mask>
  <g mask="url(#mask0_3221_1887)">
    <path d="M10.3211 20.2983C11.0482 20.2983 11.6663 20.0437 12.1753 19.5347C12.6844 19.0257 12.9389 18.4076 12.9389 17.6804C12.9389 16.9533 12.6844 16.3352 12.1753 15.8262C11.6663 15.3171 11.0482 15.0626 10.3211 15.0626C9.59391 15.0626 8.97582 15.3171 8.46679 15.8262C7.95776 16.3352 7.70324 16.9533 7.70324 17.6804C7.70324 18.4076 7.95776 19.0257 8.46679 19.5347C8.97582 20.0437 9.59391 20.2983 10.3211 20.2983ZM10.3211 24.3882C8.43051 24.3882 6.83985 23.7429 5.54908 22.4524C4.25855 21.1616 3.61328 19.571 3.61328 17.6804C3.61328 15.7899 4.25855 14.1992 5.54908 12.9085C6.83985 11.6179 8.43051 10.9727 10.3211 10.9727C11.9261 10.9727 13.3163 11.4253 14.4915 12.3307C15.6667 13.2358 16.4197 14.3101 16.7506 15.5536H29.5802L31.6989 17.6723L28.1814 21.4078L25.5909 19.4528L23.0004 21.4978L20.7916 19.8073H16.7506C16.4143 21.0725 15.6545 22.1523 14.4713 23.0465C13.2878 23.941 11.9044 24.3882 10.3211 24.3882Z" fill="#1C1B1F"/>
  </g>
</svg>