<svg xmlns="http://www.w3.org/2000/svg" width="269" height="272" viewBox="0 0 269 272" fill="none">
  <path d="M60.6994 186.167C69.6659 187.703 76.9118 186.27 84.965 182.198C86.3422 182.102 84.9042 183.669 84.5648 184.133C81.403 188.146 75.0288 189.728 69.9175 190.655C83.8944 194.843 100.964 197.23 114.754 192.333C130.847 186.976 144.979 171.266 142.401 153.636C131.315 152.434 119.438 148.601 111.774 140.076C102.948 128.191 115.026 118.286 128.131 123.666C138.758 128.032 146.236 138.077 149.306 148.951C194.19 147.462 212.923 103.953 194.065 65.9908C194.039 65.9449 194.024 65.8946 194.019 65.8429C194.015 65.7911 194.02 65.739 194.037 65.6899C194.053 65.6406 194.079 65.5952 194.113 65.5565C194.148 65.5178 194.19 65.4864 194.237 65.4645C194.282 65.4402 194.331 65.4248 194.382 65.4197C194.433 65.4143 194.484 65.4191 194.533 65.4338C194.582 65.4485 194.628 65.4727 194.668 65.505C194.707 65.5373 194.74 65.5771 194.764 65.622C216.256 104.581 196.615 150.616 150.212 153.779C151.916 166.884 145.49 179.945 135.509 188.161C117.809 203.104 89.5657 202.42 69.173 192.836C70.1742 195.029 71.9789 196.779 72.9869 198.961C74.1653 201.514 74.3568 206.651 72.7599 205.424C71.586 203 70.2274 200.667 68.6956 198.446C67.1868 196.174 65.4114 193.653 63.7986 191.454L63.4821 191.043L60.3246 186.843C60.2727 186.777 60.2411 186.699 60.234 186.616C60.2267 186.534 60.2444 186.451 60.2843 186.379C60.3244 186.307 60.3852 186.248 60.459 186.211C60.5329 186.173 60.6165 186.157 60.6994 186.167ZM132.635 134.951C122.505 123.422 107.323 129.322 119.434 139.569C125.844 144.236 133.302 147.27 141.145 148.401C139.38 143.338 136.468 138.736 132.635 134.951Z" fill="#4395F3"/>
  <path d="M202.833 127.803C202.79 127.771 202.74 127.75 202.688 127.742C202.635 127.733 202.581 127.739 202.531 127.757C202.481 127.775 202.436 127.805 202.402 127.845C202.367 127.885 202.342 127.932 202.331 127.984C200.199 137.383 192.269 145.645 184.07 148.237C183.996 148.259 183.933 148.308 183.895 148.375C183.858 148.441 183.847 148.52 183.866 148.595C183.884 148.67 183.928 148.737 183.99 148.785C184.051 148.833 184.126 148.859 184.204 148.86C194.394 148.948 201.91 137.553 203.054 128.363C203.068 128.257 203.053 128.151 203.011 128.053C202.968 127.955 202.9 127.87 202.814 127.807L202.833 127.803Z" fill="#65696A"/>
  <path d="M105.909 121.234C100.261 121.923 98.5621 129.641 102.285 133.563C102.309 133.59 102.342 133.608 102.378 133.615C102.414 133.621 102.451 133.615 102.483 133.598C102.515 133.581 102.54 133.554 102.554 133.52C102.569 133.487 102.571 133.45 102.561 133.415C101.457 128.95 102.111 124.294 106.021 121.528C106.052 121.508 106.075 121.479 106.087 121.444C106.098 121.409 106.097 121.372 106.084 121.337C106.071 121.302 106.047 121.274 106.015 121.255C105.983 121.236 105.946 121.228 105.909 121.234Z" fill="#65696A"/>
  <path d="M203.184 124.756C203.631 124.691 204.035 124.462 204.319 124.115C204.537 123.864 204.673 123.553 204.709 123.222C204.743 122.902 204.678 122.579 204.523 122.294C204.314 121.908 203.991 121.594 203.598 121.395C203.233 121.593 202.915 121.863 202.661 122.189C202.489 122.407 202.383 122.669 202.354 122.945C202.325 123.222 202.374 123.501 202.497 123.753C202.679 124.116 202.91 124.453 203.184 124.756Z" fill="#65696A"/>
  <path d="M118.197 185.604C111.484 189.074 101.098 191.115 93.6697 189.265C93.6529 189.259 93.6345 189.259 93.6188 189.266C93.6022 189.273 93.5901 189.286 93.584 189.302C93.5769 189.319 93.5775 189.337 93.5846 189.353C93.5923 189.369 93.6053 189.382 93.6221 189.388C100.511 193.007 112.557 190.729 118.268 185.714C118.279 185.702 118.286 185.689 118.288 185.673C118.29 185.658 118.286 185.643 118.278 185.63C118.269 185.617 118.256 185.607 118.242 185.602C118.227 185.598 118.211 185.598 118.197 185.604Z" fill="#65696A"/>
</svg>