<svg xmlns="http://www.w3.org/2000/svg" width="165" height="192" viewBox="0 0 165 192" fill="none">
  <path d="M94.3034 151.959C88.4278 149.692 84.6289 146.269 81.2858 140.992C80.5011 140.446 80.8 141.888 80.8373 142.284C81.2934 145.791 84.5213 148.993 87.2311 151.357C77.4363 148.889 66.4416 144.252 59.9809 136.449C52.3147 127.556 49.4868 113.203 57.2735 103.637C64.2901 106.854 72.7108 108.789 80.2911 106.44C89.7544 102.506 86.0877 92.3331 76.3888 90.8824C68.5221 89.7075 60.5127 93.0266 54.8302 98.402C28.6761 81.5941 32.9743 49.083 57.6522 33.2052C57.6836 33.1869 57.7106 33.1624 57.7317 33.1334C57.7529 33.1043 57.7681 33.0713 57.7756 33.0362C57.7836 33.0012 57.7842 32.965 57.7774 32.9297C57.7705 32.8944 57.7569 32.861 57.7365 32.8312C57.7183 32.8008 57.6948 32.7743 57.6662 32.7531C57.638 32.732 57.6059 32.7167 57.5714 32.7079C57.5369 32.6992 57.5013 32.6974 57.4662 32.7026C57.4311 32.7077 57.3976 32.7197 57.3673 32.7379C30.7696 48.2742 26.1154 82.6089 52.5791 100.951C46.9175 108.137 46.1037 118.181 49.123 126.606C54.3442 141.769 71.377 151.381 86.8999 152.918C85.527 153.866 83.8331 154.267 82.46 155.206C80.8535 156.306 78.9173 159.292 80.3019 159.129C81.8598 158.104 83.4952 157.199 85.1937 156.422C86.8968 155.607 88.8462 154.738 90.5852 154.003L90.9192 153.871L94.2863 152.494C94.3404 152.474 94.3871 152.438 94.4207 152.391C94.4541 152.345 94.473 152.29 94.4748 152.233C94.4766 152.176 94.4614 152.119 94.4308 152.071C94.4003 152.022 94.356 151.983 94.3034 151.959ZM69.7077 95.9932C79.8197 92.7331 86.7522 101.626 75.9171 103.421C70.4504 103.922 64.941 103.08 59.8773 100.97C62.7226 98.5861 66.0865 96.8834 69.7077 95.9932Z" fill="#FFD54A"/>
  <path d="M30.5106 66.8409C30.5474 66.8369 30.5845 66.8421 30.6185 66.856C30.653 66.87 30.6829 66.8922 30.7063 66.9207C30.7297 66.9492 30.7453 66.9829 30.7519 67.0189C30.7586 67.0549 30.7561 67.0919 30.7446 67.1267C28.6779 73.4706 30.4608 81.1954 34.416 85.6448C34.4521 85.6841 34.4716 85.7358 34.4704 85.789C34.4694 85.8417 34.4479 85.8925 34.4102 85.9302C34.3724 85.9679 34.3227 85.9924 34.2692 85.9988C34.2154 86.0058 34.1615 85.9948 34.115 85.9677C28.0259 82.4052 27.6001 72.9646 30.1803 67.0951C30.2094 67.0278 30.256 66.9694 30.316 66.9263C30.376 66.8832 30.4464 66.8569 30.5202 66.85L30.5106 66.8409Z" fill="#65696A"/>
  <path d="M90.464 97.3181C93.5775 99.7316 91.8493 104.922 88.2446 105.933C88.2205 105.941 88.1946 105.94 88.1709 105.931C88.1473 105.922 88.1274 105.905 88.1145 105.884C88.1015 105.863 88.0962 105.838 88.0996 105.813C88.103 105.788 88.1147 105.765 88.133 105.748C90.3734 103.485 91.6361 100.485 90.2931 97.4534C90.2817 97.4306 90.2783 97.4051 90.2838 97.3802C90.2893 97.3553 90.3031 97.3334 90.3231 97.3175C90.3432 97.3015 90.368 97.2931 90.3937 97.2931C90.4192 97.2935 90.4441 97.302 90.464 97.3181Z" fill="#65696A"/>
  <path d="M31.3826 64.9043C31.1403 64.7071 30.9808 64.4276 30.9354 64.1205C30.895 63.8939 30.9248 63.6608 31.0206 63.4515C31.1138 63.2492 31.2672 63.0799 31.4601 62.9659C31.7213 62.8103 32.0249 62.7383 32.3291 62.7596C32.4754 63.0064 32.5686 63.2798 32.6041 63.5634C32.629 63.7541 32.5994 63.9476 32.5187 64.1223C32.438 64.2969 32.3094 64.4456 32.1473 64.5515C31.9101 64.7028 31.6528 64.8214 31.3826 64.9043Z" fill="#65696A"/>
  <path d="M60.3224 131.227C63.0822 135.671 68.5324 140.569 73.6045 142.104C73.6168 142.107 73.6276 142.113 73.6345 142.123C73.6417 142.133 73.6443 142.145 73.6423 142.157C73.6407 142.169 73.6338 142.18 73.624 142.187C73.6136 142.194 73.6014 142.197 73.5891 142.195C68.2099 141.902 61.8567 136.275 60.2411 131.267C60.2386 131.256 60.2392 131.246 60.2437 131.236C60.2478 131.226 60.2553 131.218 60.2649 131.214C60.2746 131.209 60.2858 131.208 60.296 131.21C60.3066 131.212 60.3161 131.218 60.3224 131.227Z" fill="#65696A"/>
</svg>