<svg xmlns="http://www.w3.org/2000/svg" width="166" height="173" viewBox="0 0 166 173" fill="none">
  <path d="M80.1595 149.514C85.1923 145.458 87.8334 140.922 89.4482 134.717C90.0442 133.938 90.2036 135.441 90.2913 135.84C90.9439 139.41 88.7919 143.551 86.8837 146.711C95.6843 141.23 104.979 133.255 108.849 123.604C113.557 112.51 111.826 97.5955 101.218 90.6844C95.368 96.027 87.7434 100.556 79.5984 100.634C69.1164 99.7524 69.5141 88.6607 78.5398 84.2049C85.8609 80.5926 94.7291 81.3281 101.967 84.8024C122.266 60.1821 107.882 29.7509 78.7882 21.9609C78.7519 21.9528 78.7178 21.9374 78.688 21.9156C78.6582 21.8938 78.6331 21.8663 78.6147 21.8344C78.5959 21.8027 78.584 21.7675 78.5796 21.7308C78.5753 21.6942 78.5781 21.6572 78.5887 21.6217C78.5969 21.5863 78.6116 21.5531 78.633 21.5234C78.6539 21.4939 78.6804 21.4689 78.7114 21.4496C78.7424 21.4302 78.7767 21.4173 78.8126 21.4114C78.8485 21.4054 78.8851 21.4066 78.9203 21.4149C109.784 28.2698 125.087 60.3719 104.966 86.5884C112.75 91.8392 116.692 101.402 116.379 110.583C116.025 127.038 102.387 141.769 87.6962 148.133C89.3352 148.63 91.1162 148.49 92.7526 148.979C94.6673 149.551 97.4951 151.863 96.0907 152.137C94.2471 151.623 92.365 151.251 90.4616 151.024C88.5414 150.76 86.364 150.522 84.434 150.348L84.0662 150.323L80.3438 150.032C80.2844 150.029 80.2276 150.009 80.1802 149.974C80.1331 149.939 80.0972 149.891 80.0776 149.835C80.0579 149.78 80.0551 149.72 80.0699 149.663C80.0844 149.606 80.1156 149.554 80.1595 149.514ZM86.6708 87.1078C75.7659 87.0885 71.7754 97.9523 82.9281 96.313C88.4283 95.0904 93.5497 92.542 97.8381 88.8932C94.3104 87.4544 90.4891 86.8437 86.6708 87.1078Z" fill="#26BC30"/>
  <path d="M115.854 46.3352C115.817 46.3429 115.783 46.3596 115.754 46.3838C115.724 46.4084 115.702 46.4394 115.688 46.4746C115.674 46.5097 115.67 46.5476 115.674 46.5848C115.679 46.6221 115.693 46.6576 115.715 46.6879C119.722 52.2413 120.399 60.3502 117.927 65.938C117.904 65.9877 117.901 66.0444 117.919 66.096C117.936 66.1472 117.973 66.1901 118.022 66.2151C118.071 66.2402 118.127 66.2485 118.181 66.2381C118.236 66.228 118.285 66.2004 118.322 66.1594C123.158 60.7701 120.617 51.4092 116.257 46.4803C116.207 46.4236 116.144 46.3811 116.071 46.3578C115.999 46.3345 115.922 46.3308 115.848 46.3472L115.854 46.3352Z" fill="#65696A"/>
  <path d="M66.8036 94.9031C64.5163 98.2373 67.8313 102.77 71.6712 102.629C71.6972 102.628 71.7221 102.619 71.7426 102.603C71.7628 102.587 71.7771 102.565 71.7829 102.54C71.789 102.515 71.7863 102.489 71.7751 102.465C71.7639 102.442 71.7455 102.424 71.7222 102.412C68.8236 100.902 66.6497 98.3651 67.0129 94.9818C67.017 94.9559 67.0123 94.9299 66.9991 94.9073C66.986 94.8847 66.9656 94.8677 66.9411 94.8583C66.9165 94.849 66.8895 94.8486 66.8645 94.8566C66.8397 94.865 66.8179 94.8811 66.8036 94.9031Z" fill="#65696A"/>
  <path d="M114.398 44.7154C114.573 44.4468 114.642 44.1236 114.59 43.8093C114.558 43.5751 114.456 43.3566 114.297 43.182C114.142 43.0135 113.939 42.8961 113.715 42.845C113.411 42.7749 113.092 42.7995 112.801 42.9156C112.736 43.2027 112.73 43.4991 112.784 43.7874C112.82 43.9816 112.909 44.1615 113.043 44.3069C113.176 44.4523 113.349 44.5574 113.54 44.6101C113.819 44.6837 114.108 44.7191 114.398 44.7154Z" fill="#65696A"/>
  <path d="M106.886 118.605C105.581 123.813 101.788 130.308 97.3108 133.397C97.2995 133.403 97.291 133.413 97.2873 133.424C97.2835 133.437 97.2848 133.449 97.2903 133.46C97.2958 133.471 97.3058 133.48 97.3175 133.483C97.3299 133.487 97.3428 133.486 97.3542 133.48C102.52 131.509 106.968 124.019 106.978 118.618C106.977 118.607 106.974 118.597 106.966 118.589C106.959 118.58 106.949 118.575 106.938 118.574C106.927 118.572 106.916 118.574 106.907 118.58C106.897 118.586 106.89 118.594 106.886 118.605Z" fill="#65696A"/>
</svg>