<svg xmlns="http://www.w3.org/2000/svg" width="39" height="38" viewBox="0 0 39 38" fill="none">
  <path d="M4.16797 5.14551C3.85302 5.14551 3.55098 5.27062 3.32828 5.49332C3.10558 5.71602 2.98047 6.01806 2.98047 6.33301C2.98047 6.64795 3.10558 6.95 3.32828 7.1727C3.55098 7.3954 3.85302 7.52051 4.16797 7.52051H6.03789C6.32437 7.52041 6.60123 7.62389 6.81743 7.81186C7.03362 7.99983 7.17458 8.25962 7.2143 8.54334L9.1998 22.6619C9.31929 23.5125 9.74207 24.2913 10.3903 24.8549C11.0385 25.4184 11.8685 25.7288 12.7275 25.7288H29.1055C29.4204 25.7288 29.7225 25.6037 29.9452 25.381C30.1679 25.1583 30.293 24.8563 30.293 24.5413C30.293 24.2264 30.1679 23.9244 29.9452 23.7017C29.7225 23.479 29.4204 23.3538 29.1055 23.3538H12.7275C12.441 23.3539 12.1641 23.2505 11.9479 23.0625C11.7317 22.8745 11.5908 22.6147 11.5511 22.331L11.3611 20.9804H28.5434C29.3041 20.9808 30.0449 20.7377 30.6574 20.2867C31.27 19.8357 31.7221 19.2005 31.9476 18.474L34.9891 8.67634C35.0442 8.4987 35.0567 8.31061 35.0258 8.12722C34.9948 7.94384 34.9213 7.77029 34.811 7.62055C34.7007 7.47081 34.5567 7.34908 34.3908 7.26515C34.2248 7.18121 34.0414 7.13744 33.8555 7.13734H9.23464C8.94124 6.54005 8.48641 6.03687 7.92169 5.68483C7.35697 5.33279 6.70493 5.14596 6.03947 5.14551H4.16797ZM9.74922 9.51234H32.2436L29.6786 17.7694C29.6033 18.0115 29.4524 18.223 29.2481 18.3732C29.0439 18.5233 28.7969 18.6042 28.5434 18.6038H11.027L9.74922 9.51234ZM12.8256 28.1038C12.0908 28.1038 11.386 28.3958 10.8664 28.9154C10.3467 29.435 10.0548 30.1398 10.0548 30.8747C10.0548 31.6095 10.3467 32.3143 10.8664 32.834C11.386 33.3536 12.0908 33.6455 12.8256 33.6455C13.5605 33.6455 14.2653 33.3536 14.7849 32.834C15.3045 32.3143 15.5965 31.6095 15.5965 30.8747C15.5965 30.1398 15.3045 29.435 14.7849 28.9154C14.2653 28.3958 13.5605 28.1038 12.8256 28.1038ZM23.5701 30.8747C23.5701 30.1398 23.8621 29.435 24.3817 28.9154C24.9013 28.3958 25.6061 28.1038 26.341 28.1038C27.0758 28.1038 27.7806 28.3958 28.3002 28.9154C28.8199 29.435 29.1118 30.1398 29.1118 30.8747C29.1118 31.6095 28.8199 32.3143 28.3002 32.834C27.7806 33.3536 27.0758 33.6455 26.341 33.6455C25.6061 33.6455 24.9013 33.3536 24.3817 32.834C23.8621 32.3143 23.5701 31.6095 23.5701 30.8747Z" fill="white"/>
</svg>