<svg width="32" height="32" viewBox="0 0 32 32" fill="none" xmlns="http://www.w3.org/2000/svg">
<g id="check_circle">
<mask id="mask0_3097_637" style="mask-type:alpha" maskUnits="userSpaceOnUse" x="0" y="0" width="32" height="32">
<rect id="Bounding box" width="32" height="32" fill="#D9D9D9"/>
</mask>
<g mask="url(#mask0_3097_637)">
<path id="check_circle_2" d="M14.1064 21.6723L23.0704 12.7083L21.6654 11.3033L14.1064 18.8623L10.3064 15.0623L8.90136 16.4673L14.1064 21.6723ZM16.001 28.6673C14.249 28.6673 12.6023 28.3349 11.0607 27.67C9.51914 27.0051 8.17825 26.1028 7.03803 24.963C5.89781 23.8232 4.99503 22.4829 4.3297 20.942C3.66459 19.4011 3.33203 17.7548 3.33203 16.003C3.33203 14.251 3.66448 12.6042 4.32936 11.0627C4.99425 9.5211 5.89659 8.18021 7.03637 7.03998C8.17614 5.89976 9.51648 4.99698 11.0574 4.33165C12.5983 3.66654 14.2446 3.33398 15.9964 3.33398C17.7484 3.33398 19.3951 3.66643 20.9367 4.33132C22.4783 4.99621 23.8191 5.89854 24.9594 7.03832C26.0996 8.1781 27.0024 9.51843 27.6677 11.0593C28.3328 12.6002 28.6654 14.2465 28.6654 15.9983C28.6654 17.7503 28.3329 19.3971 27.668 20.9387C27.0031 22.4802 26.1008 23.8211 24.961 24.9613C23.8213 26.1015 22.4809 27.0043 20.94 27.6697C19.3991 28.3348 17.7528 28.6673 16.001 28.6673Z" fill="#2367C0"/>
</g>
</g>
</svg>
