<svg xmlns="http://www.w3.org/2000/svg" width="81" height="81" viewBox="0 0 81 81" fill="none">
  <g clip-path="url(#clip0_3221_2176)">
    <path d="M26.1618 16.8429C25.9114 17.1025 25.7075 17.4031 25.5588 17.7317L25.5408 17.7137L0.304829 74.5622L0.329579 74.5869C-0.138421 75.4937 0.644579 77.3387 2.24883 78.9452C3.85308 80.5494 5.69808 81.3324 6.60483 80.8644L6.62733 80.8869L63.4758 55.6487L63.4578 55.6284C63.7886 55.4709 64.0923 55.2797 64.3466 55.0232C67.8611 51.5087 62.1618 40.1124 51.6206 29.5689C41.0748 19.0254 29.6786 13.3284 26.1618 16.8429Z" fill="#DD2E44"/>
    <path d="M29.2533 27L0.939329 73.1385L0.304829 74.5672L0.329579 74.592C-0.138421 75.4988 0.644579 77.3438 2.24883 78.9503C2.77083 79.4723 3.31308 79.8682 3.84408 80.2035L38.2533 38.25L29.2533 27Z" fill="#EA596E"/>
    <path d="M51.7775 29.4004C62.285 39.9124 68.1192 51.1174 64.8027 54.4294C61.4885 57.7459 50.2835 51.9139 39.7692 41.4064C29.2595 30.8944 23.4275 19.6849 26.7417 16.3706C30.0582 13.0564 41.2632 18.8884 51.7775 29.4004Z" fill="#A0041E"/>
    <path d="M41.8271 30.6217C41.3625 30.9954 40.7685 31.1694 40.1756 31.1054C38.2226 30.8939 36.5801 30.2144 35.4304 29.1412C34.2131 28.0049 33.6124 26.4794 33.7766 24.9517C34.0646 22.2697 36.7556 19.8082 41.3434 20.3032C43.1276 20.4944 43.9241 19.9207 43.9511 19.6462C43.9826 19.3739 43.3279 18.6427 41.5436 18.4492C39.5906 18.2377 37.9481 17.5582 36.7961 16.4849C35.5789 15.3487 34.9759 13.8232 35.1424 12.2954C35.4349 9.61342 38.1236 7.15192 42.7069 7.64917C44.0074 7.78867 44.6936 7.52092 44.9839 7.34767C45.2156 7.20592 45.3079 7.07092 45.3169 6.99217C45.3439 6.71992 44.6981 5.98867 42.9094 5.79517C42.3163 5.73064 41.7731 5.43318 41.3992 4.9682C41.0254 4.50323 40.8515 3.90881 40.9159 3.31567C40.947 3.02186 41.0358 2.73708 41.1773 2.47769C41.3188 2.21831 41.5101 1.98943 41.7403 1.80419C41.9705 1.61896 42.235 1.48102 42.5186 1.3983C42.8023 1.31558 43.0995 1.28971 43.3931 1.32217C47.9764 1.81492 50.0824 4.79167 49.7921 7.47592C49.4996 10.1624 46.8109 12.6194 42.2231 12.1267C40.9226 11.9849 40.2431 12.2549 39.9506 12.4282C39.7189 12.5677 39.6244 12.7049 39.6154 12.7814C39.5861 13.0559 40.2364 13.7849 42.0251 13.9784C46.6084 14.4734 48.7144 17.4479 48.4241 20.1322C48.1339 22.8164 45.4451 25.2757 40.8596 24.7784C39.5591 24.6389 38.8751 24.9089 38.5826 25.0799C38.3486 25.2239 38.2586 25.3589 38.2496 25.4354C38.2204 25.7077 38.8706 26.4389 40.6571 26.6324C41.0995 26.6802 41.5178 26.858 41.8592 27.1435C42.2005 27.429 42.4495 27.8092 42.5748 28.2362C42.7 28.6632 42.6958 29.1177 42.5627 29.5423C42.4297 29.9669 42.1737 30.3425 41.8271 30.6217Z" fill="#AA8DD8"/>
    <path d="M68.9859 51.4251C73.4251 50.1718 76.4874 52.1518 77.2164 54.7506C77.9454 57.3471 76.3659 60.6343 71.9289 61.8831C70.1964 62.3691 69.6766 63.1971 69.7464 63.4603C69.8229 63.7258 70.7026 64.1623 72.4306 63.6741C76.8676 62.4253 79.9299 64.4053 80.6589 67.0018C81.3924 69.6006 79.8084 72.8833 75.3691 74.1343C73.6389 74.6203 73.1169 75.4506 73.1934 75.7138C73.2699 75.9771 74.1451 76.4136 75.8754 75.9276C76.1624 75.8389 76.4644 75.8085 76.7633 75.8383C77.0623 75.8682 77.3523 75.9576 77.6162 76.1013C77.88 76.245 78.1124 76.4401 78.2997 76.6751C78.4869 76.9101 78.6252 77.1802 78.7063 77.4695C78.7875 77.7588 78.8099 78.0614 78.7722 78.3595C78.7345 78.6576 78.6375 78.9451 78.4868 79.2051C78.3362 79.4651 78.1351 79.6923 77.8952 79.8732C77.6554 80.0542 77.3817 80.1853 77.0904 80.2588C72.6556 81.5076 69.5911 79.5321 68.8576 76.9311C68.1286 74.3346 69.7104 71.0518 74.1519 69.8008C75.8844 69.3126 76.4041 68.4868 76.3276 68.2213C76.2556 67.9581 75.3781 67.5193 73.6501 68.0053C69.2086 69.2563 66.1486 67.2808 65.4174 64.6776C64.6861 62.0811 66.2679 58.7983 70.7071 57.5451C72.4351 57.0613 72.9549 56.2288 72.8829 55.9678C72.8064 55.7023 71.9311 55.2658 70.2009 55.7518C69.9117 55.8493 69.6057 55.8869 69.3015 55.8623C68.9973 55.8377 68.7013 55.7516 68.4315 55.609C68.1617 55.4665 67.9237 55.2705 67.732 55.0331C67.5403 54.7956 67.3988 54.5217 67.3163 54.2279C67.2338 53.9341 67.212 53.6266 67.252 53.324C67.2921 53.0215 67.3933 52.7303 67.5495 52.4681C67.7057 52.206 67.9136 51.9783 68.1605 51.799C68.4074 51.6197 68.6882 51.4925 68.9859 51.4251Z" fill="#77B255"/>
    <path d="M51.7531 45.3559C51.2871 45.3552 50.8329 45.2101 50.4529 44.9405C50.0729 44.6709 49.7858 44.29 49.6313 43.8505C49.4768 43.4109 49.4625 42.9342 49.5902 42.4862C49.7179 42.0381 49.9815 41.6406 50.3446 41.3486C50.8351 40.9549 62.5351 31.7659 79.0703 34.1306C79.3695 34.1644 79.6588 34.258 79.9211 34.4056C80.1835 34.5533 80.4135 34.7521 80.5977 34.9903C80.7818 35.2284 80.9162 35.5012 80.9931 35.7922C81.0699 36.0833 81.0875 36.3869 81.0449 36.6849C81.0023 36.9829 80.9003 37.2694 80.745 37.5272C80.5896 37.7851 80.3841 38.0092 80.1406 38.1863C79.8971 38.3633 79.6206 38.4897 79.3274 38.5579C79.0341 38.6261 78.7302 38.6348 78.4336 38.5834C63.8243 36.5089 53.2628 44.7799 53.1593 44.8631C52.7601 45.1823 52.2642 45.3561 51.7531 45.3559Z" fill="#AA8DD8"/>
    <path d="M12.9474 35.999C12.5967 35.999 12.2509 35.9171 11.9375 35.7597C11.6241 35.6023 11.3518 35.3738 11.1424 35.0925C10.933 34.8111 10.7922 34.4848 10.7314 34.1394C10.6705 33.794 10.6913 33.4392 10.7919 33.1032C13.3412 24.614 15.6519 11.0667 12.8124 7.53423C12.4952 7.13373 12.0159 6.73998 10.9179 6.82323C8.80741 6.98523 9.00766 11.438 9.00991 11.483C9.03849 11.7811 9.00728 12.0819 8.91811 12.3677C8.82894 12.6536 8.6836 12.9188 8.49062 13.1477C8.29764 13.3767 8.06089 13.5649 7.79426 13.7012C7.52762 13.8374 7.23646 13.9191 6.93784 13.9415C6.63923 13.9638 6.33916 13.9263 6.05523 13.8311C5.7713 13.7359 5.50922 13.5851 5.28435 13.3873C5.05948 13.1896 4.87635 12.9489 4.74568 12.6795C4.61502 12.4101 4.53945 12.1173 4.52341 11.8182C4.29166 8.71548 5.25691 2.73948 10.5804 2.33673C12.9564 2.15673 14.9297 2.98248 16.3224 4.71498C21.6572 11.3547 16.2414 30.6035 15.1029 34.397C14.9636 34.8603 14.6787 35.2663 14.2904 35.5548C13.9021 35.8434 13.4312 35.9992 12.9474 35.999Z" fill="#77B255"/>
    <path d="M57.375 24.75C59.239 24.75 60.75 23.239 60.75 21.375C60.75 19.511 59.239 18 57.375 18C55.511 18 54 19.511 54 21.375C54 23.239 55.511 24.75 57.375 24.75Z" fill="#5C913B"/>
    <path d="M4.5 45C6.98528 45 9 42.9853 9 40.5C9 38.0147 6.98528 36 4.5 36C2.01472 36 0 38.0147 0 40.5C0 42.9853 2.01472 45 4.5 45Z" fill="#9266CC"/>
    <path d="M73.125 47.25C74.989 47.25 76.5 45.739 76.5 43.875C76.5 42.011 74.989 40.5 73.125 40.5C71.261 40.5 69.75 42.011 69.75 43.875C69.75 45.739 71.261 47.25 73.125 47.25Z" fill="#5C913B"/>
    <path d="M52.875 74.25C54.739 74.25 56.25 72.739 56.25 70.875C56.25 69.011 54.739 67.5 52.875 67.5C51.011 67.5 49.5 69.011 49.5 70.875C49.5 72.739 51.011 74.25 52.875 74.25Z" fill="#5C913B"/>
    <path d="M63 13.5C65.4853 13.5 67.5 11.4853 67.5 9C67.5 6.51472 65.4853 4.5 63 4.5C60.5147 4.5 58.5 6.51472 58.5 9C58.5 11.4853 60.5147 13.5 63 13.5Z" fill="#FFCC4D"/>
    <path d="M73.125 22.5C74.989 22.5 76.5 20.989 76.5 19.125C76.5 17.261 74.989 15.75 73.125 15.75C71.261 15.75 69.75 17.261 69.75 19.125C69.75 20.989 71.261 22.5 73.125 22.5Z" fill="#FFCC4D"/>
    <path d="M66.375 31.5C68.239 31.5 69.75 29.989 69.75 28.125C69.75 26.261 68.239 24.75 66.375 24.75C64.511 24.75 63 26.261 63 28.125C63 29.989 64.511 31.5 66.375 31.5Z" fill="#FFCC4D"/>
    <path d="M16.875 56.25C18.739 56.25 20.25 54.739 20.25 52.875C20.25 51.011 18.739 49.5 16.875 49.5C15.011 49.5 13.5 51.011 13.5 52.875C13.5 54.739 15.011 56.25 16.875 56.25Z" fill="#FFCC4D"/>
  </g>
  <defs>
    <clipPath id="clip0_3221_2176">
      <rect width="81" height="81" fill="white"/>
    </clipPath>
  </defs>
</svg>