<svg xmlns="http://www.w3.org/2000/svg" width="101" height="101" viewBox="0 0 101 101" fill="none">
  <g clip-path="url(#clip0_3221_2192)">
    <path d="M66.5368 83.8101C83.4514 74.444 89.5707 53.1392 80.2046 36.2245C70.8384 19.3098 49.5336 13.1905 32.6189 22.5567C15.7042 31.9229 9.58496 53.2277 18.9511 70.1423C28.3173 87.057 49.6221 93.1763 66.5368 83.8101Z" fill="#FFCC4D"/>
    <path d="M60.8567 69.2978C62.8467 68.1959 63.3432 65.2862 61.9659 62.7987C60.5885 60.3113 57.8587 59.1881 55.8688 60.29C53.8788 61.3919 53.3822 64.3016 54.7596 66.7891C56.137 69.2765 58.8667 70.3997 60.8567 69.2978Z" fill="#664500"/>
    <path d="M35.9454 66.3459C35.6232 66.5238 35.2592 66.6121 34.8914 66.6017C34.5235 66.5912 34.1651 66.4824 33.8536 66.2865C33.542 66.0906 33.2887 65.8148 33.1199 65.4878C32.9511 65.1607 32.873 64.7944 32.8937 64.427C33.0945 60.8955 35.6329 53.6404 43.793 51.4193C44.3153 51.2901 44.8675 51.3703 45.3313 51.643C45.7952 51.9157 46.1339 52.3591 46.275 52.8783C46.4161 53.3976 46.3484 53.9514 46.0863 54.4214C45.8242 54.8913 45.3886 55.24 44.8727 55.3928C37.5 57.3991 37.0115 64.5856 37.0072 64.6586C36.9875 65.0067 36.8798 65.3442 36.6941 65.6393C36.5083 65.9344 36.2507 66.1775 35.9454 66.3459ZM53.7826 47.6603C53.411 47.8665 52.9847 47.9526 52.5623 47.907C52.1398 47.8613 51.7418 47.686 51.4228 47.4052C51.1038 47.1244 50.8796 46.7519 50.7807 46.3386C50.6819 45.9253 50.7133 45.4915 50.8707 45.0968C53.9948 37.2372 61.4947 35.5371 65.0262 35.7378C65.2963 35.7527 65.5608 35.8207 65.8046 35.9378C66.0484 36.0549 66.2668 36.2189 66.4472 36.4204C66.6276 36.622 66.7666 36.857 66.8562 37.1123C66.9458 37.3675 66.9842 37.6379 66.9693 37.9079C66.9544 38.178 66.8865 38.4425 66.7694 38.6864C66.6522 38.9302 66.4882 39.1485 66.2867 39.329C66.0852 39.5094 65.8501 39.6484 65.5949 39.738C65.3397 39.8276 65.0693 39.866 64.7992 39.8511C64.4668 39.8374 57.4822 39.6115 54.6966 46.6199C54.5211 47.0618 54.1982 47.4294 53.7826 47.6603Z" fill="#664500"/>
    <path d="M55.2402 78.9427C55.0314 79.0585 54.7986 79.1242 54.5601 79.1348C54.3215 79.1454 54.0838 79.1006 53.8656 79.0038C53.6473 78.9071 53.4545 78.7611 53.3022 78.5772C53.1498 78.3934 53.0422 78.1767 52.9877 77.9443C52.2387 74.7339 50.4309 72.23 48.0288 71.0719C46.4332 70.303 44.7297 70.2364 43.3532 70.888C42.5824 71.2559 41.6606 70.926 41.2955 70.156C40.9303 69.386 41.2327 68.4229 42.0284 68.1C44.2515 67.0432 46.9267 67.1132 49.3673 68.2899C52.6142 69.8558 55.0301 73.1177 55.9926 77.2408C56.0692 77.5677 56.0372 77.9107 55.9015 78.2178C55.7657 78.5249 55.5335 78.7794 55.2402 78.9427ZM72.0705 62.4178C71.8068 62.5647 71.5054 62.63 71.2046 62.6054C68.334 62.3824 65.8138 60.6071 64.2901 57.7363C62.7113 54.7618 62.6022 51.2489 64.0047 48.7868C64.2079 48.4314 64.5438 48.1711 64.9387 48.0633C65.3336 47.9554 65.7551 48.0087 66.1108 48.2115C66.4662 48.4146 66.7264 48.7505 66.8343 49.1454C66.9422 49.5403 66.8888 49.9619 66.6861 50.3175C65.8088 51.8578 65.9403 54.259 67.0166 56.2877C68.033 58.2084 69.6487 59.3875 71.4419 59.5268C71.773 59.5526 72.087 59.6843 72.3373 59.9026C72.5876 60.1209 72.7609 60.414 72.8314 60.7385C72.902 61.063 72.8661 61.4017 72.729 61.7041C72.5919 62.0066 72.361 62.2569 72.0705 62.4178Z" fill="#E2A62D"/>
    <path d="M33.662 23.6776C33.5194 23.6387 33.3679 23.6473 33.2307 23.7022C33.2307 23.7022 1.52677 34.1416 0.892013 35.9243C0.260061 37.7078 18.2894 65.7997 18.2894 65.7997C18.3792 65.9407 18.4805 66.047 18.6087 66.0914C20.3792 66.7211 25.1814 57.7345 29.3389 46.0236C33.4973 34.3098 35.4325 24.3073 33.662 23.6776Z" fill="#DD2E44"/>
    <path d="M0.901594 36.05C0.908417 36.1385 0.92665 36.2257 0.955837 36.3095C2.60997 38.6209 16.6309 57.4121 21.8725 62.8098C23.6585 59.9306 25.1986 56.5096 26.9308 52.3514C21.6492 49.0027 2.23437 35.0178 0.901594 36.05Z" fill="#EA596E"/>
    <path d="M83.0312 58.745L62.6833 66.945C60.5458 67.8885 56.9561 69.8527 55.3542 66.5261C53.9026 63.5094 57.6597 62.0175 60.4646 60.9657L81.3995 53.5494L83.0312 58.745Z" fill="#3B88C3"/>
    <path d="M81.3971 53.5527L73.0686 56.4602C72.0898 56.7926 72.0314 58.5575 72.7689 59.9829C73.5877 61.568 74.4787 62.1057 75.4794 61.7917L83.4559 58.5801L81.3971 53.5527Z" fill="#88C9F9"/>
    <path d="M89.1814 48.5391L86.8629 55.4983L73.3342 50.9914L75.6528 44.0321C76.2367 42.2923 77.4859 40.8546 79.1272 40.0336C80.7685 39.2126 82.6681 39.075 84.4105 39.6511L84.8004 39.7813C86.5392 40.3666 87.9758 41.616 88.7967 43.2569C89.6175 44.8977 89.7558 46.7966 89.1814 48.5391Z" fill="#3B88C3"/>
    <path d="M86.866 55.5019C87.8619 52.513 85.641 49.0811 81.9055 47.8364C78.1699 46.5916 74.3343 48.0056 73.3384 50.9944C72.3425 53.9833 74.5634 57.4153 78.299 58.66C82.0345 59.9047 85.8701 58.4908 86.866 55.5019Z" fill="#88C9F9"/>
    <path d="M84.158 54.5999C84.656 53.1054 83.2429 51.2886 81.0018 50.5419C78.7607 49.7951 76.5402 50.4012 76.0423 51.8957C75.5443 53.3901 76.9574 55.2069 79.1985 55.9537C81.4396 56.7004 83.6601 56.0943 84.158 54.5999Z" fill="#226699"/>
    <path d="M39.4178 96.4747C40.9102 95.6483 41.4502 93.7685 40.6237 92.276C39.7973 90.7835 37.9175 90.2436 36.425 91.07C34.9325 91.8965 34.3926 93.7763 35.219 95.2688C36.0455 96.7612 37.9253 97.3012 39.4178 96.4747Z" fill="#55ACEE"/>
    <path d="M56.2341 14.1916C58.2241 13.0897 58.944 10.5832 57.8421 8.59328C56.7402 6.60332 54.2337 5.8834 52.2438 6.9853C50.2538 8.0872 49.5339 10.5937 50.6358 12.5836C51.7377 14.5736 54.2441 15.2935 56.2341 14.1916Z" fill="#55ACEE"/>
    <path d="M37.939 83.7538L28.1245 75.9685L30.3464 88.9679L37.939 83.7538ZM51.8296 18.9879L45.6209 24.7798L43.4322 16.5759L51.8296 18.9879Z" fill="#EA596E"/>
    <path d="M70.6159 27.4118L72.8351 14.4108L65.4362 13.8022L70.6159 27.4118Z" fill="#77B255"/>
  </g>
  <defs>
    <clipPath id="clip0_3221_2192">
      <rect width="74.1358" height="74.1358" fill="white" transform="translate(0 35.9141) rotate(-28.9746)"/>
    </clipPath>
  </defs>
</svg>