<svg width="47" height="47" viewBox="0 0 47 47" fill="none" xmlns="http://www.w3.org/2000/svg">
<rect width="47" height="47" rx="23.5" fill="#DB6157"/>
<g clip-path="url(#clip0_3221_1637)">
<path d="M30 23.5H27.5V21.5C27.5 20.3969 28.3969 19.5 29.5 19.5H29.75C30.1656 19.5 30.5 19.1656 30.5 18.75V17.25C30.5 16.8344 30.1656 16.5 29.75 16.5H29.5C26.7375 16.5 24.5 18.7375 24.5 21.5V29C24.5 29.8281 25.1719 30.5 26 30.5H30C30.8281 30.5 31.5 29.8281 31.5 29V25C31.5 24.1719 30.8281 23.5 30 23.5ZM21 23.5H18.5V21.5C18.5 20.3969 19.3969 19.5 20.5 19.5H20.75C21.1656 19.5 21.5 19.1656 21.5 18.75V17.25C21.5 16.8344 21.1656 16.5 20.75 16.5H20.5C17.7375 16.5 15.5 18.7375 15.5 21.5V29C15.5 29.8281 16.1719 30.5 17 30.5H21C21.8281 30.5 22.5 29.8281 22.5 29V25C22.5 24.1719 21.8281 23.5 21 23.5Z" fill="white"/>
</g>
<defs>
<clipPath id="clip0_3221_1637">
<rect width="16" height="16" fill="white" transform="translate(15.5 15.5)"/>
</clipPath>
</defs>
</svg>
