<svg xmlns="http://www.w3.org/2000/svg" width="20" height="14" viewBox="0 0 20 14" fill="none">
  <g clip-path="url(#clip0_3221_2022)">
    <path d="M18.6667 14H1.33333C0.979711 14 0.640573 13.8525 0.390524 13.5899C0.140476 13.3274 0 12.9713 0 12.6L0 1.4C0 1.0287 0.140476 0.672601 0.390524 0.410051C0.640573 0.1475 0.979711 0 1.33333 0L18.6667 0C19.0203 0 19.3594 0.1475 19.6095 0.410051C19.8595 0.672601 20 1.0287 20 1.4V12.6C20 12.9713 19.8595 13.3274 19.6095 13.5899C19.3594 13.8525 19.0203 14 18.6667 14ZM15.8244 11.5027H15.8167C15.7407 11.5031 15.6656 11.5198 15.5961 11.5518C15.5265 11.5838 15.4639 11.6304 15.4122 11.6888L15.4117 11.6894C15.3022 11.8153 15.2416 11.9796 15.2417 12.1501C15.2418 12.3205 15.3026 12.4848 15.4122 12.6105L15.4117 12.6099C15.5128 12.7248 15.6567 12.7966 15.8167 12.7966H15.8244C15.896 12.8017 15.9672 12.7878 16.0323 12.7562C16.0974 12.7246 16.154 12.6763 16.1967 12.6158L16.1972 12.6146V12.7697H16.4489V11.0378H16.1972V11.6853C16.156 11.6287 16.103 11.5828 16.0422 11.551C15.9814 11.5193 15.9145 11.5026 15.8467 11.5022L15.8233 11.5027H15.8244ZM13.4633 11.5027H13.4506C13.29 11.5027 13.145 11.5727 13.0422 11.6853C12.9326 11.813 12.872 11.9788 12.8721 12.1507C12.8722 12.3225 12.933 12.4883 13.0428 12.6158L13.0422 12.6152C13.1456 12.7277 13.2906 12.7977 13.4511 12.7977H13.4644L13.4889 12.7983C13.555 12.7984 13.6201 12.7819 13.679 12.7502C13.7378 12.7186 13.7886 12.6727 13.8272 12.6163L13.8283 12.6152V12.7703H14.0894V11.5395H13.8289V11.6853C13.7867 11.626 13.7314 11.5783 13.6677 11.5465C13.604 11.5146 13.5338 11.4996 13.4633 11.5027ZM12.3256 11.5027L12.3022 11.5022C12.1387 11.5022 11.9818 11.5704 11.8662 11.6918C11.7505 11.8132 11.6856 11.9779 11.6856 12.1497C11.6856 12.3214 11.7505 12.4861 11.8662 12.6075C11.9818 12.7289 12.1387 12.7972 12.3022 12.7972L12.3267 12.7966H12.3256L12.3483 12.7972C12.4983 12.7972 12.6356 12.7423 12.7439 12.6502L12.7428 12.6513L12.6211 12.4326C12.5403 12.4985 12.4422 12.5368 12.34 12.5422H12.3389C12.2878 12.5457 12.2367 12.5377 12.1888 12.5188C12.1409 12.4999 12.0974 12.4705 12.0611 12.4326C11.9965 12.354 11.9609 12.2537 11.961 12.1498C11.9611 12.046 11.9969 11.9457 12.0617 11.8673L12.0611 11.8679C12.0926 11.8329 12.1306 11.8051 12.1727 11.7863C12.2149 11.7674 12.2603 11.7579 12.3061 11.7582H12.3178H12.3172C12.4277 11.7586 12.5349 11.7974 12.6222 11.8685L12.6211 11.8673L12.7428 11.6486C12.6279 11.5535 12.4858 11.5019 12.3394 11.5022L12.3256 11.5027ZM10.0589 11.5027H10.045C9.96958 11.5029 9.89497 11.5191 9.82572 11.5505C9.75647 11.5819 9.69404 11.6278 9.64222 11.6853C9.53045 11.8122 9.47112 11.9804 9.47722 12.1532V12.152L9.47667 12.1788C9.47667 12.3509 9.54167 12.5072 9.64667 12.6216C9.75222 12.7318 9.89778 12.7995 10.0583 12.7995L10.0772 12.7989H10.0761L10.0989 12.7995C10.2728 12.7995 10.4317 12.7336 10.555 12.6245L10.5539 12.6257L10.4322 12.4256C10.339 12.5124 10.219 12.5608 10.0944 12.5621C10.0099 12.5698 9.92524 12.543 9.85902 12.4872C9.79281 12.4315 9.74959 12.3511 9.73833 12.2628V12.2611H10.615V12.152C10.6226 11.9798 10.5662 11.8112 10.4578 11.6818L10.4583 11.6824C10.4094 11.6257 10.3498 11.5804 10.2832 11.5493C10.2166 11.5183 10.1445 11.5022 10.0717 11.5022H10.0594L10.0589 11.5027ZM8.34945 11.5395V11.7857H8.59222V12.3422C8.59222 12.6443 8.72945 12.7977 9 12.7977H9.00944C9.12167 12.7977 9.22556 12.7627 9.31278 12.7032L9.31056 12.7044L9.24056 12.4763C9.17168 12.5172 9.09412 12.5393 9.015 12.5405C8.905 12.5405 8.84926 12.4738 8.84889 12.3404V11.7862H9.26556V11.5401H8.84889V11.1667H8.58833V11.5401L8.34945 11.5395ZM7.25667 12.432L7.14389 12.642C7.28111 12.7394 7.45 12.7972 7.63167 12.7972H7.64833H7.64722L7.68389 12.7983C7.81667 12.7983 7.94056 12.7569 8.04445 12.6857L8.04167 12.6875C8.08578 12.656 8.12189 12.6136 8.14687 12.5641C8.17184 12.5146 8.18493 12.4594 8.185 12.4034V12.3953C8.18426 12.1899 8.04833 12.069 7.77722 12.0312L7.65611 12.0126C7.52278 11.9885 7.45611 11.9461 7.45611 11.8854C7.45611 11.7944 7.52852 11.7489 7.67333 11.7489H7.67611C7.81222 11.7489 7.94 11.7862 8.05056 11.8516L8.04667 11.8492L8.15111 11.6305C8.00639 11.5402 7.83987 11.4959 7.67167 11.5027H7.67333L7.64333 11.5022C7.52578 11.502 7.41121 11.541 7.31611 11.6136L7.31778 11.6124C7.27699 11.6454 7.24403 11.6878 7.22148 11.7364C7.19892 11.785 7.18739 11.8384 7.18778 11.8924V11.9047V11.9041C7.18852 12.104 7.32444 12.2224 7.59556 12.2593L7.70833 12.278C7.84685 12.3025 7.9163 12.3451 7.91667 12.4057C7.91704 12.5088 7.82722 12.5605 7.64722 12.5609H7.64222C7.50327 12.5612 7.36769 12.516 7.25444 12.4314L7.25667 12.4332V12.432ZM6.26667 11.5022H6.25278C6.17745 11.5024 6.10294 11.5187 6.0338 11.5501C5.96465 11.5814 5.90231 11.6273 5.85056 11.6847C5.74359 11.8139 5.68473 11.9792 5.68483 12.1504C5.68494 12.3215 5.744 12.4868 5.85111 12.6158L5.85056 12.6152C5.90237 12.6727 5.96481 12.7186 6.03405 12.75C6.1033 12.7814 6.17791 12.7976 6.25333 12.7977H6.26778C6.33939 12.8018 6.4103 12.7874 6.47539 12.7558C6.54047 12.7242 6.59718 12.6763 6.64056 12.6163L6.64111 12.6152V12.7703H6.89278V11.5395H6.64111V11.6853C6.59688 11.6283 6.54114 11.5824 6.47791 11.5508C6.41469 11.5192 6.34557 11.5028 6.27556 11.5027L6.26667 11.5022ZM14.4267 11.5389V12.7697H14.6783V12.0773C14.6783 11.8658 14.7622 11.7596 14.93 11.7588H14.9356C14.9911 11.7592 15.0422 11.7717 15.0889 11.7962L15.0867 11.795L15.1644 11.5395C15.1125 11.5146 15.056 11.5021 14.9989 11.5027L14.9811 11.5033H14.9822H14.9728C14.9129 11.503 14.8541 11.5197 14.8025 11.5515C14.7509 11.5833 14.7084 11.6291 14.6794 11.6842L14.6783 11.6859V11.5401L14.4267 11.5389ZM10.8767 11.5389V12.7697H11.1372V12.0773C11.1372 11.8658 11.2211 11.7596 11.3889 11.7588H11.3944C11.45 11.7592 11.5011 11.7717 11.5478 11.7962L11.5456 11.795L11.6239 11.5395C11.5694 11.5153 11.5108 11.5028 11.4517 11.5027H11.4411H11.4317C11.3719 11.5026 11.3132 11.5193 11.2617 11.5511C11.2102 11.5829 11.1678 11.6287 11.1389 11.6836L11.1378 11.6853V11.5395L10.8767 11.5389ZM4.93889 11.7577C5.11222 11.7584 5.19907 11.8673 5.19944 12.0843V12.768H5.46V11.9933L5.46056 11.9741C5.46036 11.851 5.41499 11.7328 5.33389 11.6439C5.24184 11.5543 5.12107 11.5043 4.99556 11.5039H4.99056C4.91042 11.4981 4.83029 11.5152 4.75869 11.5535C4.68708 11.5917 4.62667 11.6495 4.58389 11.7209L4.58278 11.7227C4.54325 11.6516 4.48568 11.5936 4.41651 11.5549C4.34734 11.5163 4.2693 11.4986 4.19111 11.5039H4.19222H4.18722C4.12194 11.5038 4.0576 11.5202 3.99967 11.5518C3.94173 11.5834 3.89191 11.6292 3.85444 11.6853L3.85333 11.6865V11.5407H3.59389V12.7715H3.85444V12.0867C3.85519 11.8689 3.95074 11.76 4.14111 11.76C4.31444 11.7608 4.4013 11.8697 4.40167 12.0867V12.7703H4.65333V12.0867C4.65407 11.8689 4.74944 11.76 4.93944 11.76L4.93889 11.7577ZM12.7256 1.16667H12.7072C11.8386 1.1661 10.9898 1.43966 10.2711 1.95183L10.2861 1.94192C11.0114 2.55932 11.5449 3.38978 11.8183 4.32717L11.8272 4.36217C11.9583 4.79675 12.0333 5.29608 12.0333 5.81467C12.0333 6.32742 11.9594 6.8215 11.8228 7.287L11.8317 7.252C11.5646 8.19848 11.0285 9.03665 10.295 9.65417L10.2861 9.66175C11.0064 10.1692 11.8548 10.439 12.7222 10.4364C13.3444 10.4364 13.9361 10.3005 14.4722 10.0555L14.4439 10.0672C15.4945 9.60462 16.3326 8.73128 16.7811 7.63175L16.7917 7.602C17.0139 7.07117 17.1433 6.45225 17.1433 5.80183C17.1433 5.15142 17.0139 4.5325 16.7806 3.9725L16.7917 4.00167C16.3508 2.89744 15.5171 2.0174 14.4678 1.54875L14.4394 1.53767C13.9002 1.2927 13.3187 1.16701 12.7311 1.16842H12.725L12.7256 1.16667ZM7.27444 1.16667H7.26833C6.67085 1.16642 6.07977 1.2959 5.53222 1.547L5.56 1.53533C4.50655 1.99519 3.66601 2.86917 3.21778 3.97075L3.20722 4.0005C2.985 4.53133 2.85556 5.15025 2.85556 5.80067C2.85556 6.45108 2.985 7.07 3.21833 7.63L3.20722 7.60083C3.64774 8.70393 4.47949 9.58396 5.52667 10.0549L5.555 10.066C6.06278 10.2993 6.655 10.4352 7.27667 10.4352C8.15029 10.4369 9.00431 10.1634 9.72833 9.65008L9.71278 9.66058C8.98356 9.04605 8.44798 8.21471 8.17611 7.27533L8.16778 7.24092C8.03356 6.77586 7.96597 6.29244 7.96722 5.8065C7.96642 5.0682 8.12191 4.33894 8.42245 3.67148C8.723 3.00402 9.16108 2.41505 9.705 1.94717L9.71333 1.94017C8.99874 1.43287 8.15537 1.16295 7.29278 1.1655H7.27278H7.27389L7.27444 1.16667ZM10 2.16008C9.29818 2.72991 8.77983 3.51219 8.515 4.40125L8.50667 4.43333C8.37317 4.87854 8.30572 5.34267 8.30667 5.80942C8.30667 6.29592 8.37833 6.76433 8.51111 7.20475L8.50278 7.17208C8.76177 8.07067 9.28175 8.8618 9.99 9.43483L10 9.44242C10.7057 8.8767 11.2262 8.09446 11.4894 7.20417L11.4978 7.17267C11.6296 6.73155 11.6957 6.27172 11.6939 5.80942C11.6939 5.31767 11.6206 4.84458 11.4856 4.40008L11.4939 4.43275C11.2338 3.53499 10.7157 2.74363 10.0106 2.16708L10.0006 2.1595L10 2.16008ZM15.8589 12.5417H15.8494C15.8031 12.5417 15.7574 12.5316 15.715 12.512C15.6726 12.4924 15.6346 12.4638 15.6033 12.4279C15.5386 12.351 15.5029 12.2519 15.503 12.1493C15.5031 12.0466 15.539 11.9476 15.6039 11.8708L15.6033 11.8714C15.6365 11.8352 15.6763 11.8065 15.7203 11.7868C15.7643 11.7672 15.8116 11.757 15.8594 11.757C15.9073 11.757 15.9546 11.7672 15.9986 11.7868C16.0426 11.8065 16.0824 11.8352 16.1156 11.8714C16.1801 11.9491 16.2156 12.0487 16.2155 12.1518C16.2154 12.2549 16.1797 12.3545 16.115 12.432L16.1156 12.4314C16.0839 12.4667 16.0457 12.4947 16.0032 12.5137C15.9608 12.5327 15.915 12.5422 15.8689 12.5417H15.8589ZM13.4894 12.5417H13.4772C13.4324 12.5413 13.3881 12.5315 13.3469 12.5128C13.3058 12.494 13.2686 12.4667 13.2378 12.4326C13.1755 12.3528 13.1415 12.2528 13.1416 12.1496C13.1417 12.0464 13.1759 11.9464 13.2383 11.8667L13.2378 11.8673C13.2686 11.8331 13.3057 11.8057 13.3468 11.7868C13.388 11.768 13.4323 11.7581 13.4772 11.7577H13.49H13.4994C13.5967 11.7577 13.6844 11.8014 13.745 11.8714C13.8072 11.942 13.845 12.0365 13.845 12.1403V12.152V12.1514L13.8456 12.1672C13.8453 12.2657 13.8112 12.3608 13.7494 12.4349L13.75 12.4343C13.7187 12.4685 13.681 12.4957 13.6394 12.5141C13.5978 12.5326 13.553 12.542 13.5078 12.5417L13.4889 12.5411H13.49L13.4894 12.5417ZM6.30167 12.5417L6.28556 12.5422C6.23992 12.5425 6.19472 12.5329 6.15277 12.514C6.11082 12.4951 6.073 12.4674 6.04167 12.4326C5.97936 12.3528 5.94535 12.2528 5.94545 12.1496C5.94555 12.0464 5.97976 11.9464 6.04222 11.8667L6.04167 11.8673C6.07506 11.8302 6.11579 11.8012 6.16099 11.7824C6.2062 11.7635 6.25478 11.7553 6.30333 11.7582H6.31556C6.3608 11.7582 6.40554 11.7683 6.44674 11.7879C6.48795 11.8076 6.52468 11.8362 6.55444 11.872L6.555 11.8726C6.61643 11.9518 6.64992 12.0508 6.64982 12.153C6.64972 12.2551 6.61603 12.3541 6.55444 12.4332L6.555 12.4326C6.52405 12.467 6.48677 12.4945 6.44543 12.5133C6.40408 12.5321 6.35952 12.542 6.31445 12.5422H6.30222H6.30278L6.30167 12.5417ZM10.3556 12.04H9.74833C9.75607 11.9611 9.79136 11.888 9.84738 11.8349C9.90341 11.7817 9.9762 11.7522 10.0517 11.752C10.1272 11.7519 10.2001 11.7811 10.2563 11.8341C10.3126 11.887 10.3481 11.96 10.3561 12.0388L10.3556 12.04Z" fill="white"/>
  </g>
  <defs>
    <clipPath id="clip0_3221_2022">
      <rect width="20" height="14" fill="white"/>
    </clipPath>
  </defs>
</svg>