<svg xmlns="http://www.w3.org/2000/svg" width="18" height="18" viewBox="0 0 18 18" fill="none">
  <path d="M5.8125 9.70833H12.1875V9H5.8125V9.70833ZM12.1875 11.4792H5.8125V10.7708H12.1875V11.4792ZM5.8125 13.25H12.1875V12.5417H5.8125V13.25Z" fill="white"/>
  <path fill-rule="evenodd" clip-rule="evenodd" d="M14.3125 7.58333C14.3125 7.39547 14.2379 7.2153 14.105 7.08247C13.9722 6.94963 13.792 6.875 13.6042 6.875H12.8958V6.52083C12.8958 4.36927 11.1516 2.625 9 2.625C6.84844 2.625 5.10417 4.36927 5.10417 6.52083V6.875H4.39583C4.20797 6.875 4.0278 6.94963 3.89497 7.08247C3.76213 7.2153 3.6875 7.39547 3.6875 7.58333V14.6667C3.6875 14.8545 3.76213 15.0347 3.89497 15.1675C4.0278 15.3004 4.20797 15.375 4.39583 15.375H13.6042C13.792 15.375 13.9722 15.3004 14.105 15.1675C14.2379 15.0347 14.3125 14.8545 14.3125 14.6667V7.58333ZM5.8125 6.52083C5.8125 5.67546 6.14833 4.8647 6.7461 4.26693C7.34387 3.66916 8.15462 3.33333 9 3.33333C9.84538 3.33333 10.6561 3.66916 11.2539 4.26693C11.8517 4.8647 12.1875 5.67546 12.1875 6.52083V6.875H11.4792V6.52083C11.4792 6.19526 11.415 5.87288 11.2905 5.5721C11.1659 5.27131 10.9832 4.99801 10.753 4.7678C10.5228 4.53759 10.2495 4.35497 9.94874 4.23038C9.64795 4.10579 9.32557 4.04167 9 4.04167C8.67443 4.04167 8.35205 4.10579 8.05126 4.23038C7.75048 4.35497 7.47718 4.53759 7.24696 4.7678C7.01675 4.99801 6.83414 5.27131 6.70955 5.5721C6.58496 5.87288 6.52083 6.19526 6.52083 6.52083V7.58333H13.6042V14.6667H4.39583V7.58333H5.8125V6.52083ZM9 4.75C9.46965 4.75 9.92007 4.93657 10.2522 5.26867C10.5843 5.60076 10.7708 6.05118 10.7708 6.52083V6.875H7.22917V6.52083C7.22917 6.05118 7.41574 5.60076 7.74783 5.26867C8.07993 4.93657 8.53035 4.75 9 4.75Z" fill="white"/>
</svg>