<svg xmlns="http://www.w3.org/2000/svg" width="27" height="12" viewBox="0 0 27 12" fill="none">
  <g clip-path="url(#clip0_3221_2020)">
    <path d="M10.2512 0.153684L6.71625 8.57032H4.41007L2.67047 1.85305C2.565 1.44032 2.47335 1.28842 2.15241 1.11389C1.6278 0.829474 0.761484 0.563474 0 0.398L0.0513633 0.153684H3.76429C4.23679 0.153684 4.66225 0.467684 4.77046 1.01137L5.68962 5.88221L7.95888 0.153684H10.2512ZM13.3689 0.153684L11.5651 8.57032H9.38313L11.1872 0.153684H13.3689ZM19.2874 5.82232C19.2965 3.60137 16.2104 3.47811 16.2306 2.48579C16.238 2.18411 16.5259 1.86295 17.1562 1.78084C17.4684 1.74053 18.3309 1.70842 19.3078 2.15768L19.6901 0.371789C19.1651 0.182316 18.4896 0 17.6494 0C15.4925 0 13.9753 1.14337 13.9632 2.78189C13.9491 3.99389 15.0469 4.66937 15.8725 5.07305C16.7229 5.48526 17.0081 5.75021 17.0042 6.11863C16.9981 6.68337 16.325 6.93337 15.6992 6.94263C14.6019 6.96 13.9659 6.64663 13.4584 6.41074L13.0624 8.25579C13.5729 8.48926 14.5137 8.69211 15.4881 8.70242C17.781 8.70242 19.2806 7.57211 19.2874 5.82232ZM24.9827 8.57042H27L25.2376 0.153684H23.3764C22.9566 0.153684 22.6039 0.396842 22.4473 0.770632L19.1736 8.57032H21.4647L21.9191 7.31305H24.7183L24.9827 8.57042ZM22.5474 5.58842L23.6962 2.42768L24.3561 5.58842H22.5474ZM16.1613 10.8872H15.2747V11.7106H16.2663V11.9582H14.976V9.67368H16.2155V9.92126H15.2747V10.6431H16.1612L16.1613 10.8872ZM16.7244 9.55179H17.0231V11.9581H16.7244V9.55179ZM17.7768 11.1921C17.7835 11.5956 18.0383 11.7616 18.3404 11.7616C18.5545 11.7616 18.6868 11.7243 18.7957 11.6769L18.8499 11.8905C18.7446 11.9379 18.5613 11.9955 18.2997 11.9955C17.7938 11.9955 17.4917 11.66 17.4917 11.1651C17.4917 10.6703 17.7835 10.2838 18.2624 10.2838C18.8024 10.2838 18.9417 10.7517 18.9417 11.0533C18.9417 11.1142 18.9382 11.1582 18.9313 11.1922L17.7768 11.1921ZM18.6529 10.9786C18.6564 10.7923 18.5748 10.4974 18.2386 10.4974C17.933 10.4974 17.8039 10.7719 17.78 10.9786H18.6529ZM20.5676 11.9005C20.4895 11.9379 20.3162 11.9956 20.0956 11.9956C19.5998 11.9956 19.2772 11.66 19.2772 11.1583C19.2772 10.6533 19.6234 10.2839 20.16 10.2839C20.3366 10.2839 20.4928 10.3278 20.5743 10.372L20.5066 10.5991C20.435 10.5618 20.323 10.5209 20.16 10.5209C19.783 10.5209 19.5794 10.8023 19.5794 11.1415C19.5794 11.5209 19.8239 11.7548 20.1499 11.7548C20.3197 11.7548 20.4317 11.7142 20.5166 11.6769L20.5676 11.9005ZM21.4058 9.92453V10.3177H21.8336V10.5446H21.4058V11.4294C21.4058 11.6329 21.4636 11.748 21.63 11.748C21.7114 11.748 21.759 11.7414 21.8032 11.7276L21.8168 11.9549C21.759 11.9752 21.6674 11.9955 21.5519 11.9955C21.4126 11.9955 21.3005 11.948 21.2293 11.8702C21.1478 11.7785 21.1138 11.6329 21.1138 11.4397V10.5446H20.859V10.3177H21.1138V10.0126L21.4058 9.92453ZM22.251 10.8296C22.251 10.6363 22.2474 10.4703 22.2373 10.3177H22.4989L22.5126 10.6429H22.5225C22.5974 10.4228 22.7806 10.2838 22.9809 10.2838C23.0116 10.2838 23.0354 10.2873 23.0626 10.2905V10.572C23.0321 10.5651 23.0016 10.5651 22.9605 10.5651C22.7502 10.5651 22.6006 10.7209 22.56 10.9448C22.553 10.9908 22.5495 11.0373 22.5497 11.0838V11.9583H22.251V10.8296ZM24.8994 11.1243C24.8994 11.7311 24.4748 11.9955 24.0809 11.9955C23.6393 11.9955 23.2931 11.67 23.2931 11.1516C23.2931 10.6058 23.6564 10.2839 24.1082 10.2839C24.5801 10.2839 24.8994 10.6259 24.8994 11.1243ZM23.5986 11.1415C23.5986 11.5007 23.8024 11.772 24.0944 11.772C24.3798 11.772 24.5936 11.504 24.5936 11.1346C24.5936 10.8567 24.4544 10.5075 24.1012 10.5075C23.7516 10.5075 23.5986 10.8331 23.5986 11.1415ZM25.3573 10.7618C25.3573 10.5891 25.3537 10.4534 25.3436 10.3179H25.6086L25.6255 10.5891H25.6323C25.7138 10.4364 25.904 10.284 26.1757 10.284C26.403 10.284 26.7564 10.4196 26.7564 10.982V11.9583H26.4576V11.0126C26.4576 10.7484 26.3591 10.5279 26.0773 10.5279C25.8836 10.5279 25.7307 10.6669 25.6766 10.8329C25.6629 10.8703 25.6561 10.9211 25.6561 10.972V11.9583H25.3573V10.7618Z" fill="white"/>
  </g>
  <defs>
    <clipPath id="clip0_3221_2020">
      <rect width="27" height="12" fill="white"/>
    </clipPath>
  </defs>
</svg>