<svg width="47" height="46" viewBox="0 0 47 46" fill="none" xmlns="http://www.w3.org/2000/svg">
<g id="mage:double-arrow-left">
<path id="Vector" d="M37.1849 10.2726L26.1391 21.3184C25.8294 21.6326 25.4603 21.8821 25.0533 22.0524C24.6463 22.2227 24.2094 22.3104 23.7682 22.3104C23.327 22.3104 22.8902 22.2227 22.4832 22.0524C22.0762 21.8821 21.7071 21.6326 21.3973 21.3184L10.3516 10.2726M37.1849 23.6893L26.1391 34.735C25.829 35.0485 25.4598 35.2974 25.0528 35.4673C24.6458 35.6371 24.2092 35.7246 23.7682 35.7246C23.3272 35.7246 22.8906 35.6371 22.4837 35.4673C22.0767 35.2974 21.7075 35.0485 21.3973 34.735L10.3516 23.6893" stroke="#DB6157" stroke-width="3" stroke-linecap="round" stroke-linejoin="round"/>
</g>
</svg>
