<svg xmlns="http://www.w3.org/2000/svg" width="16" height="16" viewBox="0 0 16 16" fill="none">
  <g clip-path="url(#clip0_3221_2024)">
    <path d="M4.97965 13.365H1.61009C1.47334 13.365 1.34206 13.3048 1.25453 13.1981C1.167 13.0915 1.13145 12.9547 1.15606 12.818L3.31675 1.06548C3.44529 0.42275 3.97315 -0.00390625 4.63504 -0.00390625H9.8207C11.9048 -0.00390625 13.3079 1.32806 13.3079 3.31097C13.3079 5.31028 11.9294 9.04362 8.61181 9.04362H6.34445L5.43097 13.0067C5.38172 13.2173 5.19573 13.365 4.97967 13.365H4.97965ZM2.16531 12.4432L4.61312 12.4432L5.5239 8.48014C5.57312 8.26956 5.75912 8.12186 5.97519 8.12186H8.61175C11.2456 8.12186 12.3834 4.93827 12.3834 3.31364C12.3834 1.83947 11.4015 0.923234 9.82067 0.923234H4.63503C4.50648 0.923234 4.27947 0.964266 4.22478 1.24323L2.16531 12.4432ZM6.57962 16.0015H3.21001C3.07326 16.0015 2.94472 15.9414 2.8572 15.8374C2.76968 15.7335 2.73139 15.594 2.756 15.46L3.18815 12.9985C3.2319 12.7468 3.46984 12.58 3.72145 12.6237C3.97309 12.6675 4.13993 12.9082 4.09617 13.1571L3.75976 15.0771H6.20761L7.08011 11.0757C7.12659 10.8624 7.31531 10.7119 7.53137 10.7119H10.168C12.8018 10.7119 13.9396 7.52834 13.9396 5.90373C13.9396 4.84527 13.4938 4.115 12.6186 3.73483C12.3861 3.63363 12.2767 3.36014 12.3806 3.12767C12.4818 2.89245 12.7553 2.7858 12.9878 2.88697C14.1967 3.41211 14.864 4.48425 14.864 5.90372C14.864 7.90303 13.4855 11.6364 10.168 11.6364H7.90336L7.03087 15.6377C6.98439 15.8511 6.79567 16.0015 6.57959 16.0015L6.57962 16.0015ZM7.18403 6.45352H6.27597C6.13922 6.45352 6.01067 6.39336 5.9204 6.28667C5.8329 6.18273 5.79459 6.04325 5.8192 5.90923L6.42639 2.53966C6.46467 2.32086 6.65614 2.15948 6.88039 2.15948H8.34911C8.90434 2.15948 9.34742 2.33727 9.62912 2.67094C9.93547 3.03472 10.0366 3.55164 9.92725 4.21078C9.70573 5.77794 8.88522 6.4535 7.18401 6.4535L7.18403 6.45352ZM6.82845 5.52906L7.18401 5.52905C8.557 5.52905 8.87973 5.03673 9.0165 4.06853C9.06025 3.79777 9.07939 3.45041 8.92625 3.26716C8.7977 3.114 8.54061 3.08392 8.34915 3.08392H7.26608L6.82847 5.52905L6.82845 5.52906Z" fill="white"/>
  </g>
  <defs>
    <clipPath id="clip0_3221_2024">
      <rect width="16" height="16" fill="white"/>
    </clipPath>
  </defs>
</svg>