<svg xmlns="http://www.w3.org/2000/svg" width="15" height="15" viewBox="0 0 15 15" fill="none">
  <path d="M5.43895 3.21399C6.19198 1.86365 6.5682 1.18848 7.13104 1.18848C7.69388 1.18848 8.07009 1.86365 8.82312 3.21399L9.01806 3.56346C9.23203 3.9474 9.33901 4.13937 9.50542 4.26597C9.67184 4.39256 9.87986 4.43951 10.2959 4.53342L10.6739 4.619C12.136 4.95005 12.8664 5.11528 13.0406 5.67455C13.2141 6.23323 12.716 6.81628 11.7193 7.98178L11.4614 8.28311C11.1785 8.61416 11.0364 8.77998 10.9728 8.98443C10.9093 9.18948 10.9306 9.41057 10.9734 9.85217L11.0127 10.2545C11.163 11.8099 11.2385 12.5873 10.7833 12.9326C10.328 13.2779 9.64331 12.9629 8.27514 12.3329L7.92032 12.1701C7.53162 11.9906 7.33727 11.9014 7.13104 11.9014C6.9248 11.9014 6.73045 11.9906 6.34175 12.1701L5.98753 12.3329C4.61876 12.9629 3.93408 13.2779 3.47941 12.9332C3.02355 12.5873 3.09904 11.8099 3.2494 10.2545L3.28863 9.85276C3.33142 9.41057 3.35282 9.18948 3.28863 8.98502C3.22563 8.77998 3.08358 8.61416 2.80068 8.2837L2.54273 7.98178C1.54603 6.81687 1.04797 6.23383 1.22152 5.67455C1.39506 5.11528 2.1267 4.94946 3.58877 4.619L3.96677 4.53342C4.38222 4.43951 4.58964 4.39256 4.75665 4.26597C4.92366 4.13937 5.03005 3.9474 5.24401 3.56346L5.43895 3.21399Z" fill="#FFD54A"/>
</svg>