<svg xmlns="http://www.w3.org/2000/svg" width="23" height="18" viewBox="0 0 23 18" fill="none">
  <path d="M12.9834 5.45641C12.9834 4.79759 12.4209 4.71732 11.8901 4.71732L10.3298 4.70575V7.49H10.9842V6.48188H11.7026C12.4367 6.48188 12.2816 6.89554 12.2931 7.49H12.9554V6.94761C12.9554 6.57806 12.8957 6.34086 12.5165 6.20852C12.8117 6.08775 12.9877 5.77822 12.9834 5.45641ZM11.8103 5.91057H10.9842V5.29586H11.8225C12.0258 5.29586 12.2492 5.33636 12.2492 5.59309C12.2492 5.8585 12.038 5.91057 11.8103 5.91057ZM11.1437 9.50623H9.04038L8.20207 10.4218L7.38388 9.50623H4.73031L4.726 12.2905H7.33647L8.18627 11.3663L9.00016 12.2905H10.2853L10.2896 11.3547C11.0438 11.3547 12.2571 11.5391 12.2571 10.4189C12.2571 9.72391 11.7665 9.50623 11.1437 9.50623ZM7.001 11.704H5.38113V11.1493H6.82931V10.583H5.38113V10.0812H7.04554L7.75957 10.8926L7.001 11.704ZM9.62727 12.033L8.61728 10.9041L9.62727 9.80346V12.033ZM11.1358 10.7877H10.2896V10.0804H11.1473C11.3707 10.0804 11.5546 10.173 11.5546 10.4182C11.5546 10.6749 11.3707 10.7877 11.1358 10.7877ZM9.87438 5.29586V4.70936H7.65972V7.49361H9.87438V6.91941H8.32204V6.36472H9.83056V5.79847H8.32204V5.29658L9.87438 5.29586ZM15.2304 10.2576C15.2304 9.59879 14.6679 9.50623 14.1493 9.50623H12.5768L12.5732 12.2905H13.2355L13.2398 11.2744H13.9424C14.3813 11.2744 14.5329 11.3547 14.5329 11.8284L14.5293 12.2905H15.1916L15.1959 11.7365C15.1959 11.3785 15.1241 11.1298 14.757 10.9974C15.0644 10.873 15.2282 10.5635 15.2318 10.2583L15.2304 10.2576ZM14.0652 10.7074H13.2391V10.0804H14.0774C14.2807 10.0804 14.5041 10.1209 14.5041 10.3777C14.5041 10.6546 14.2886 10.7074 14.0652 10.7074ZM7.16909 7.49361V4.70936H6.06787L5.282 6.59759L4.41567 4.70936H3.33456V7.34898L2.21322 4.70936H1.23555L0.0502842 7.49361H0.76432L1.02005 6.87891H2.39712L2.65213 7.49361H4.00119V5.31611L4.95874 7.49361H5.54132L6.49888 5.31611V7.49361H7.16909ZM1.25423 6.30036L1.70104 5.19172L2.16007 6.30036H1.25423ZM20.3069 12.6839V12.5031C19.8759 12.728 20.151 12.6839 14.053 12.6839C14.053 11.6714 14.0573 11.7235 14.053 11.6714C13.9855 11.6671 13.9251 11.6671 13.678 11.6671C13.678 12.3867 13.6737 11.9405 13.6737 12.6839H12.0934C12.0934 12.1979 12.0969 12.0692 12.0969 11.5109C11.6975 11.7517 11.1875 11.7676 10.7285 11.7597C10.7285 12.3505 10.7242 12.093 10.7242 12.6839H8.77244C8.56915 12.4546 8.66469 12.5595 8.15754 11.9846C8.02967 12.1249 7.64679 12.5429 7.51533 12.6839H4.24255V8.97541H7.55915C7.75885 9.20032 7.67122 9.0998 8.17765 9.66677C8.30552 9.52648 8.66469 9.128 8.80405 8.97541H11.1186C11.5101 8.97541 11.8369 9.05207 12.0883 9.20032V8.97541C14.2556 8.97541 14.6543 8.919 15.1097 9.18007V8.97541H18.2309V9.18441C18.6856 8.90743 19.0132 8.97541 20.8205 8.97541V9.17646C21.2314 8.93925 21.4829 8.96746 22.9878 8.97541V1.92873C22.9872 1.41737 22.7852 0.927127 22.426 0.565545C22.0669 0.203963 21.5799 0.000574233 21.072 0H1.91583C1.40789 0.000574233 0.920927 0.203963 0.561763 0.565545C0.202599 0.927127 0.000570393 1.41737 0 1.92873V6.34014L0.921638 4.17421H2.50631C2.67799 4.57991 2.57024 4.32318 2.86548 5.02178V4.17421H4.70157C4.81723 4.4237 5.14479 5.13821 5.25614 5.37975C5.48744 4.83375 5.65913 4.41936 5.75898 4.17421H9.86935C9.86935 4.17059 10.3284 4.17421 10.332 4.17421C12.0761 4.18216 12.4712 4.14239 12.9022 4.38682V4.17421H14.4948V4.54809C14.7979 4.30293 15.2088 4.17421 15.7203 4.17421H16.8215C16.8215 4.19446 16.8969 4.1865 16.9135 4.1865H18.2065C18.3739 4.57991 18.3106 4.42732 18.5577 5.01454V4.1865H20.2861C20.4815 4.50759 20.2459 4.11418 20.7329 4.92559V4.1865H22.3255V7.88268H20.6654C20.4499 7.52109 20.6093 7.79446 20.1381 7.00257V7.88268H18.0312C17.7755 7.28823 18.0269 7.87039 17.7676 7.26798H17.009C16.8416 7.67007 16.9214 7.47698 16.754 7.88268H15.6844C15.1937 7.88268 14.7943 7.76191 14.4991 7.52543V7.88268H11.8455C11.8333 7.32439 11.8412 6.88614 11.8412 6.88614C11.7694 6.87457 11.7054 6.87818 11.4504 6.87818V7.88702H6.04273V7.42925C5.94288 7.65416 5.93497 7.66645 5.83943 7.88702H4.66207C4.50259 7.52905 4.54641 7.62957 4.45877 7.42925V7.88702H2.34755C2.17946 7.48132 2.25992 7.67441 2.09182 7.27232H1.32535C1.15797 7.67441 1.23771 7.48132 1.07034 7.88702H0.00862015V16.0713C0.00919054 16.5826 0.211219 17.0729 0.570383 17.4345C0.929547 17.796 1.41651 17.9994 1.92445 18H21.0842C21.5921 17.9994 22.0791 17.796 22.4382 17.4345C22.7974 17.0729 22.9994 16.5826 23 16.0713V12.4395C22.4928 12.7728 21.6948 12.6846 20.3062 12.6846L20.3069 12.6839ZM21.7551 10.0927H22.9562V9.50623H21.643C21.1323 9.50623 20.6934 9.77091 20.6934 10.3379C20.6934 11.6635 22.3973 10.8521 22.3973 11.4386C22.3973 11.6432 22.2256 11.696 22.0618 11.696H20.7846L20.7803 12.2905H22.0575C22.393 12.2905 22.7601 12.2182 22.9555 11.9332V10.8969C22.5367 10.3422 21.3873 10.8448 21.3873 10.3545C21.3873 10.1217 21.5712 10.0935 21.7544 10.0935L21.7551 10.0927ZM19.4801 11.6917H18.195L18.1914 12.2861H19.4765C20.067 12.2861 20.5224 12.0612 20.5224 11.4024C20.5224 10.0689 18.8106 10.9526 18.8106 10.3458C18.8106 10.1209 19.006 10.0891 19.1777 10.0891H20.391V9.50261H19.0663C18.5556 9.50261 18.1282 9.76802 18.1282 10.3343C18.1282 11.6599 19.8321 10.8362 19.8321 11.435C19.8285 11.6519 19.6446 11.6917 19.4808 11.6917H19.4801ZM17.7963 10.0804V9.50623H15.5931L15.5888 12.2905H17.792L17.7956 11.7163L16.2554 11.704V11.1493H17.7676V10.583H16.259V10.0812L17.7963 10.0804ZM15.5493 5.73773C15.5378 5.74568 15.4933 5.82595 15.4933 6.04291C15.4933 6.28373 15.5292 6.35243 15.5371 6.36039C15.545 6.364 15.5809 6.38063 15.6729 6.38063L15.9645 5.70157C15.9207 5.70157 15.8805 5.69795 15.841 5.69795C15.6176 5.69795 15.5615 5.72543 15.5493 5.73773ZM15.7174 4.70502C14.7792 4.70502 14.3605 5.18738 14.3605 6.12318C14.3605 7.01559 14.7678 7.48927 15.6772 7.48927H16.4437L16.6987 6.87457H18.0678L18.3315 7.48927H19.6762V5.40434L20.9211 7.48927H21.8629V4.71732H21.1883V6.64966L20.0275 4.71732H19.0175V7.34464L17.9041 4.71732H16.9142L15.976 6.90711H15.6808C15.1499 6.90711 15.0386 6.58168 15.0386 6.108C15.0386 5.15195 15.665 5.30382 16.3596 5.31611V4.70647L15.7174 4.70502ZM17.3976 5.191L17.8444 6.29964H16.935L17.3976 5.191ZM13.3627 4.70936V7.49361H14.0372V4.70936H13.3627Z" fill="white"/>
</svg>